<svg xmlns="http://www.w3.org/2000/svg" viewBox="0 0 1200 420" role="img" aria-label="EA App">
  <defs>
    <linearGradient id="bg" x1="0" y1="0" x2="1200" y2="420" gradientUnits="userSpaceOnUse">
      <stop stop-color="#02060b"/>
      <stop offset=".42" stop-color="#0b3a58"/>
      <stop offset="1" stop-color="#020409"/>
    </linearGradient>
    <radialGradient id="flare" cx="72%" cy="76%" r="62%">
      <stop stop-color="#67e8f9" stop-opacity=".46"/>
      <stop offset=".38" stop-color="#67e8f9" stop-opacity=".16"/>
      <stop offset="1" stop-color="#67e8f9" stop-opacity="0"/>
    </radialGradient>
    <filter id="soft"><feGaussianBlur stdDeviation="12"/></filter>
    <filter id="shadow"><feDropShadow dx="0" dy="8" stdDeviation="8" flood-color="#000" flood-opacity=".65"/></filter>
  </defs>
  <rect width="1200" height="420" rx="34" fill="url(#bg)"/>
  <rect x="10" y="10" width="1180" height="400" rx="28" fill="none" stroke="#67e8f9" stroke-opacity=".42" stroke-width="3"/>
  <rect width="1200" height="420" rx="34" fill="url(#flare)"/>
  <g opacity=".24" filter="url(#soft)">
    <path d="M110 296c186-54 357-58 513-7 119 39 265 46 430-24" stroke="#67e8f9" stroke-width="34" fill="none"/>
    <path d="M80 224c156-72 308-91 454-58" stroke="#fff" stroke-width="22" fill="none" opacity=".25"/>
  </g>
  
      <g opacity=".62" transform="translate(690 48) skewX(-8)">
        <rect width="390" height="154" rx="18" fill="#06101c" stroke="#67e8f9" stroke-opacity=".25"/>
        <rect x="24" y="24" width="88" height="56" rx="10" fill="#67e8f9" opacity=".16"/>
        <rect x="126" y="24" width="88" height="56" rx="10" fill="#ffffff" opacity=".08"/>
        <rect x="228" y="24" width="88" height="56" rx="10" fill="#67e8f9" opacity=".12"/>
        <rect x="24" y="96" width="132" height="34" rx="8" fill="#ffffff" opacity=".08"/>
        <rect x="172" y="96" width="74" height="34" rx="8" fill="#67e8f9" opacity=".15"/>
        <rect x="262" y="96" width="92" height="34" rx="8" fill="#ffffff" opacity=".07"/>
      </g>
      <circle cx="1042" cy="112" r="52" fill="#67e8f9" opacity=".12"/>
      <path d="M1008 112h68M1042 78v68" stroke="#67e8f9" stroke-width="8" stroke-linecap="round" opacity=".34"/>
  <g filter="url(#shadow)">
    <circle cx="174" cy="210" r="93" fill="#03101c" stroke="#67e8f9" stroke-opacity=".36" stroke-width="3"/>
    <circle cx="174" cy="210" r="62" fill="#67e8f9" opacity=".16"/>
    <text x="174" y="232" text-anchor="middle" font-family="Arial Black, Impact, sans-serif" font-size="42" fill="#fff">EA</text>
  </g>
  <g filter="url(#shadow)">
    <text x="300" y="218" font-family="Arial Black, Impact, sans-serif" font-size="70" fill="#fff" letter-spacing="-1">EA App</text>
    <text x="304" y="266" font-family="Arial, sans-serif" font-size="26" fill="#67e8f9" font-weight="800" letter-spacing="4">PC PLATFORM</text>
  </g>
  <rect y="260" width="1200" height="160" fill="url(#bg)" opacity=".34"/>
</svg>